<svg width="104" height="110" viewBox="0 0 104 110" fill="none" xmlns="http://www.w3.org/2000/svg">
<path id="Ellipse 100" d="M43.9806 36.691C59.3909 36.0676 76.6431 27.658 96.4613 11.5458C93.2077 20.1239 89.8653 27.2818 86.8349 33.536C86.2499 34.7433 85.672 35.9253 85.1053 37.0842C81.5195 44.4174 78.3856 50.8267 76.7903 56.8673C74.8596 64.178 75.1084 71.1194 78.9259 78.9945C81.4661 84.2344 85.5572 89.8263 91.473 96.2307C85.1377 94.1577 80.0676 91.9424 75.6977 89.8882C74.422 89.2885 73.1808 88.6883 71.9654 88.1006C66.7544 85.581 62.0179 83.2908 57.0734 82.2509C50.6356 80.8971 43.97 81.617 34.9882 85.3333C29.4794 87.6126 23.0133 91.0549 15.0842 95.9229C20.1066 88.3868 23.4497 81.9679 25.4403 76.2774C28.749 66.8187 28.3053 59.4095 25.8128 52.4363C24.0786 47.5844 21.2745 42.8379 18.3807 37.9397C17.3468 36.1898 16.3016 34.4205 15.2895 32.6201C13.6439 29.6925 11.9994 26.5538 10.4691 23.0752C20.1514 32.3529 31.1682 37.2093 43.9806 36.691Z" stroke="#20EE34" stroke-width="7"/>
</svg>
