<svg width="39" height="40" viewBox="0 0 39 40" fill="none" xmlns="http://www.w3.org/2000/svg">
<g id="Group">
<path id="Vector" d="M38.5538 11.8773V12.018C38.5538 13.6758 38.5538 14.5067 38.1548 15.1852C37.7557 15.8638 37.029 16.2667 35.5794 17.0744L34.0507 17.9225C35.1032 14.3602 35.456 10.5318 35.5852 7.25856L35.6044 6.83254L35.6083 6.7323C36.8632 7.16796 37.5687 7.49374 38.0083 8.10289C38.5538 8.86047 38.5538 9.86672 38.5538 11.8773ZM0 11.8773V12.018C0 13.6758 2.87248e-08 14.5067 0.399032 15.1852C0.798064 15.8638 1.5248 16.2667 2.97443 17.0744L4.50501 17.9225C3.45056 14.3602 3.0978 10.5318 2.96864 7.25856L2.94937 6.83254L2.94744 6.7323C1.69058 7.16796 0.985049 7.49374 0.545536 8.10289C0 8.86047 0 9.86865 0 11.8773Z" fill="black"/>
<path id="Vector_2" fill-rule="evenodd" clip-rule="evenodd" d="M19.2763 0.000453482C22.7153 0.000453482 25.547 0.3031 27.7138 0.669361C29.9094 1.03948 31.0062 1.22454 31.9238 2.35416C32.8414 3.48379 32.7913 4.70401 32.6949 7.14447C32.3633 15.528 30.5552 25.9973 20.722 26.9226V33.735H23.4786C23.9241 33.7353 24.3557 33.8898 24.7001 34.1724C25.0445 34.4549 25.2804 34.848 25.3678 35.2849L25.734 37.1085H30.8424C31.2258 37.1085 31.5936 37.2608 31.8647 37.5319C32.1358 37.8031 32.2882 38.1708 32.2882 38.5542C32.2882 38.9377 32.1358 39.3054 31.8647 39.5765C31.5936 39.8477 31.2258 40 30.8424 40H7.71012C7.32668 40 6.95894 39.8477 6.68781 39.5765C6.41667 39.3054 6.26435 38.9377 6.26435 38.5542C6.26435 38.1708 6.41667 37.8031 6.68781 37.5319C6.95894 37.2608 7.32668 37.1085 7.71012 37.1085H12.8185L13.1848 35.2849C13.2721 34.848 13.508 34.4549 13.8524 34.1724C14.1968 33.8898 14.6284 33.7353 15.0739 33.735H17.8305V26.9226C7.99927 25.9973 6.1911 15.5261 5.85954 7.14447C5.76123 4.70401 5.71303 3.48186 6.63061 2.35416C7.54627 1.22454 8.64312 1.03948 10.8388 0.669361C13.6278 0.212261 16.4501 -0.0114835 19.2763 0.000453482ZM21.1114 8.09482L20.9225 7.75555C20.19 6.43893 19.8237 5.78352 19.2763 5.78352C18.7288 5.78352 18.3625 6.43893 17.63 7.75555L17.4411 8.09482C17.2329 8.46879 17.1288 8.65385 16.9669 8.77722C16.803 8.90059 16.6006 8.94686 16.1958 9.03746L15.8295 9.12228C14.4069 9.4442 13.6956 9.6042 13.526 10.1478C13.3563 10.6933 13.8421 11.2601 14.8117 12.3936L15.0623 12.6866C15.338 13.0085 15.4768 13.1685 15.5385 13.369C15.6002 13.5695 15.5789 13.7834 15.5385 14.2133L15.4999 14.6046C15.3534 16.1179 15.2802 16.8754 15.7216 17.2109C16.165 17.5463 16.8319 17.2398 18.164 16.6268L18.5071 16.4687C18.8869 16.2952 19.0758 16.2085 19.2763 16.2085C19.4767 16.2085 19.6656 16.2952 20.0454 16.4687L20.3885 16.6268C21.7206 17.2417 22.3875 17.5463 22.8309 17.2109C23.2743 16.8754 23.1991 16.1179 23.0526 14.6046L23.014 14.2133C22.9736 13.7834 22.9524 13.5695 23.014 13.369C23.0757 13.1704 23.2145 13.0085 23.4902 12.6866L23.7408 12.3936C24.7104 11.2601 25.1962 10.6933 25.0266 10.1478C24.8569 9.6042 24.1456 9.4442 22.723 9.12228L22.3567 9.03746C21.9519 8.94686 21.7495 8.90252 21.5856 8.77722C21.4237 8.65385 21.3196 8.46879 21.1114 8.09482Z" fill="black"/>
</g>
</svg>
