<svg width="1390" height="124" viewBox="0 0 1390 124" fill="none" xmlns="http://www.w3.org/2000/svg">
<path d="M459 36.5C426 45.0007 437 46.5007 426 69C420 41.0007 423 43.5007 393 36.5C429 34.0007 420.5 25.5007 426 4C430.5 26.5 435.5 36.5 459 36.5Z" fill="#F0E57E"/>
<path d="M927 79.5C894 88.0007 905 89.5007 894 112C888 84.0007 891 86.5007 861 79.5C897 77.0007 888.5 68.5007 894 47C898.5 69.5 903.5 79.5 927 79.5Z" fill="#9580D1"/>
<path d="M1390 33.5C1357 42.0007 1368 43.5007 1357 66C1351 38.0007 1354 40.5007 1324 33.5C1360 31.0007 1351.5 22.5007 1357 1C1361.5 23.5 1366.5 33.5 1390 33.5Z" fill="#20EE34"/>
<path d="M167 99.7727C152 103.637 157 104.319 152 114.545C149.273 101.819 150.636 102.955 137 99.7727C153.364 98.6367 149.5 94.7731 152 85C154.045 95.2273 156.318 99.7727 167 99.7727Z" fill="#D9D9D9"/>
<path d="M807 108.773C792 112.637 797 113.319 792 123.545C789.273 110.819 790.636 111.955 777 108.773C793.364 107.637 789.5 103.773 792 94C794.045 104.227 796.318 108.773 807 108.773Z" fill="#D9D9D9"/>
<path d="M1300 101.083C1285 104.947 1290 105.629 1285 115.856C1282.27 103.129 1283.64 104.265 1270 101.083C1286.36 99.947 1282.5 96.0834 1285 86.3103C1287.05 96.5376 1289.32 101.083 1300 101.083Z" fill="#EE1010"/>
<path d="M30 17.7727C15 21.6367 20 22.3185 15 32.5455C12.2727 19.8185 13.6364 20.9549 0 17.7727C16.3636 16.6367 12.5 12.7731 15 3C17.0455 13.2273 19.3182 17.7727 30 17.7727Z" fill="#EF1111"/>
<path d="M670 26.7727C655 30.6367 660 31.3185 655 41.5455C652.273 28.8185 653.636 29.9549 640 26.7727C656.364 25.6367 652.5 21.7731 655 12C657.045 22.2273 659.318 26.7727 670 26.7727Z" fill="#D9D9D9"/>
<path d="M1163 19.083C1148 22.947 1153 23.6288 1148 33.8558C1145.27 21.1288 1146.64 22.2652 1133 19.083C1149.36 17.947 1145.5 14.0834 1148 4.3103C1150.05 14.5376 1152.32 19.083 1163 19.083Z" fill="#D9D9D9"/>
<path d="M102 20.3106C89.5 23.5306 93.6667 24.0988 89.5 32.6212C87.2273 22.0154 88.3636 22.9624 77 20.3106C90.6364 19.3639 87.4167 16.1442 89.5 8C91.2045 16.5227 93.0985 20.3106 102 20.3106Z" fill="#D9D9D9"/>
<path d="M451 81.3106C438.5 84.5306 442.667 85.0988 438.5 93.6212C436.227 83.0154 437.364 83.9624 426 81.3106C439.636 80.3639 436.417 77.1442 438.5 69C440.205 77.5227 442.098 81.3106 451 81.3106Z" fill="#D9D9D9"/>
<path d="M944 73.6209C931.5 76.8409 935.667 77.4091 931.5 85.9315C929.227 75.3257 930.364 76.2727 919 73.6209C932.636 72.6742 929.417 69.4545 931.5 61.3103C933.205 69.833 935.098 73.6209 944 73.6209Z" fill="#D9D9D9"/>
<path d="M548 33.3106C535.5 36.5306 539.667 37.0988 535.5 45.6212C533.227 35.0154 534.364 35.9624 523 33.3106C536.636 32.3639 533.417 29.1442 535.5 21C537.205 29.5227 539.098 33.3106 548 33.3106Z" fill="#D9D9D9"/>
<path d="M1041 25.6209C1028.5 28.8409 1032.67 29.4091 1028.5 37.9315C1026.23 27.3257 1027.36 28.2727 1016 25.6209C1029.64 24.6742 1026.42 21.4545 1028.5 13.3103C1030.2 21.833 1032.1 25.6209 1041 25.6209Z" fill="#D9D9D9"/>
<path d="M586.594 87.0032C573.748 88.2657 577.778 89.4669 572.352 97.2486C571.735 86.4196 572.712 87.5298 561.89 83.1646C575.51 84.323 572.823 80.6471 576.132 72.9193C576.508 81.6027 577.798 85.6365 586.594 87.0032Z" fill="#D9D9D9"/>
<path d="M1079.59 79.3136C1066.75 80.576 1070.78 81.7772 1065.35 89.5589C1064.73 78.7299 1065.71 79.8401 1054.89 75.4749C1068.51 76.6333 1065.82 72.9574 1069.13 65.2296C1069.51 73.913 1070.8 77.9468 1079.59 79.3136Z" fill="#D9D9D9"/>
<path d="M775.594 71.0032C762.748 72.2657 766.778 73.4669 761.352 81.2486C760.735 70.4196 761.712 71.5298 750.89 67.1646C764.51 68.323 761.823 64.6471 765.132 56.9193C765.508 65.6027 766.798 69.6365 775.594 71.0032Z" fill="#D9D9D9"/>
<path d="M1268.59 63.3136C1255.75 64.576 1259.78 65.7772 1254.35 73.5589C1253.73 62.7299 1254.71 63.8401 1243.89 59.4749C1257.51 60.6333 1254.82 56.9574 1258.13 49.2296C1258.51 57.913 1259.8 61.9468 1268.59 63.3136Z" fill="#D9D9D9"/>
<path d="M853.072 23.6929C840.225 24.9554 844.255 26.1566 838.83 33.9383C838.212 23.1093 839.19 24.2195 828.368 19.8543C841.988 21.0126 839.301 17.3368 842.61 9.60901C842.986 18.2924 844.276 22.3262 853.072 23.6929Z" fill="#D9D9D9"/>
<path d="M1346.07 16.0032C1333.23 17.2657 1337.26 18.4669 1331.83 26.2486C1331.21 15.4196 1332.19 16.5298 1321.37 12.1646C1334.99 13.323 1332.3 9.64707 1335.61 1.91931C1335.99 10.6027 1337.28 14.6365 1346.07 16.0032Z" fill="#D9D9D9"/>
<path d="M38 92.3864C30.5 94.3183 33 94.6593 30.5 99.7727C29.1364 93.4093 29.8182 93.9774 23 92.3864C31.1818 91.8183 29.25 89.8865 30.5 85C31.5227 90.1136 32.6591 92.3864 38 92.3864Z" fill="#D9D9D9"/>
</svg>
