<svg width="1332" height="616" viewBox="0 0 1332 616" fill="none" xmlns="http://www.w3.org/2000/svg">
<g filter="url(#filter0_d_127_288)">
<path d="M449 368.5C429 379 421.5 372 421.5 396C411.5 378 421.5 375 394 368.5C421.5 366 411.5 356.5 421.5 341C418 357.5 425.5 366.5 449 368.5Z" fill="#8A4B4B"/>
<path d="M864.073 469.214C856.491 490.492 846.232 490.432 862.505 508.073C842.95 501.622 848.266 492.637 823.646 506.505C842.164 486.022 828.373 485.819 825.214 467.646C833.828 482.147 845.443 483.677 864.073 469.214Z" fill="#DC8D8D"/>
<path d="M1280.07 294.214C1272.49 315.492 1262.23 315.432 1278.5 333.073C1258.95 326.622 1264.27 317.637 1239.65 331.505C1258.16 311.022 1244.37 310.819 1241.21 292.646C1249.83 307.147 1261.44 308.677 1280.07 294.214Z" fill="#DC8D8D"/>
<path d="M59 59.5C39 70 31.5 63 31.5 87C21.5 69 31.5 66 4 59.5C31.5 57 21.5 47.5 31.5 32C28 48.5 35.5 57.5 59 59.5Z" fill="#9580D1"/>
<path d="M814 27.5C794 38 786.5 31 786.5 55C776.5 37 786.5 34 759 27.5C786.5 25 776.5 15.5 786.5 0C783 16.5 790.5 25.5 814 27.5Z" fill="#D9D9D9"/>
<path d="M429 122.5C409 133 401.5 126 401.5 150C391.5 132 401.5 129 374 122.5C401.5 120 391.5 110.5 401.5 95C398 111.5 405.5 120.5 429 122.5Z" fill="#D9D9D9"/>
<path d="M237 580.5C217 591 209.5 584 209.5 608C199.5 590 209.5 587 182 580.5C209.5 578 199.5 568.5 209.5 553C206 569.5 213.5 578.5 237 580.5Z" fill="#868FE2"/>
<path d="M1328 487.5C1308 498 1300.5 491 1300.5 515C1290.5 497 1300.5 494 1273 487.5C1300.5 485 1290.5 475.5 1300.5 460C1297 476.5 1304.5 485.5 1328 487.5Z" fill="#E3D06A"/>
<path d="M733 330C729.364 331.909 728 330.636 728 335C726.182 331.727 728 331.182 723 330C728 329.545 726.182 327.818 728 325C727.364 328 728.727 329.636 733 330Z" fill="#D9D9D9"/>
<path d="M664 330C660.364 331.909 659 330.636 659 335C657.182 331.727 659 331.182 654 330C659 329.545 657.182 327.818 659 325C658.364 328 659.727 329.636 664 330Z" fill="#D9D9D9"/>
<path d="M394 228C390.364 229.909 389 228.636 389 233C387.182 229.727 389 229.182 384 228C389 227.545 387.182 225.818 389 223C388.364 226 389.727 227.636 394 228Z" fill="#D9D9D9"/>
<path d="M904 288C900.364 289.909 899 288.636 899 293C897.182 289.727 899 289.182 894 288C899 287.545 897.182 285.818 899 283C898.364 286 899.727 287.636 904 288Z" fill="#D9D9D9"/>
<path d="M904 199C900.364 200.909 899 199.636 899 204C897.182 200.727 899 200.182 894 199C899 198.545 897.182 196.818 899 194C898.364 197 899.727 198.636 904 199Z" fill="#D9D9D9"/>
<path d="M938 199C934.364 200.909 933 199.636 933 204C931.182 200.727 933 200.182 928 199C933 198.545 931.182 196.818 933 194C932.364 197 933.727 198.636 938 199Z" fill="#D9D9D9"/>
<path d="M928 469C924.364 470.909 923 469.636 923 474C921.182 470.727 923 470.182 918 469C923 468.545 921.182 466.818 923 464C922.364 467 923.727 468.636 928 469Z" fill="#D9D9D9"/>
<path d="M928 540C924.364 541.909 923 540.636 923 545C921.182 541.727 923 541.182 918 540C923 539.545 921.182 537.818 923 535C922.364 538 923.727 539.636 928 540Z" fill="#D9D9D9"/>
<path d="M748 493C744.364 494.909 743 493.636 743 498C741.182 494.727 743 494.182 738 493C743 492.545 741.182 490.818 743 488C742.364 491 743.727 492.636 748 493Z" fill="#D9D9D9"/>
<path d="M595 326C591.364 327.909 590 326.636 590 331C588.182 327.727 590 327.182 585 326C590 325.545 588.182 323.818 590 321C589.364 324 590.727 325.636 595 326Z" fill="#D9D9D9"/>
<path d="M506 345C502.364 346.909 501 345.636 501 350C499.182 346.727 501 346.182 496 345C501 344.545 499.182 342.818 501 340C500.364 343 501.727 344.636 506 345Z" fill="#D9D9D9"/>
<path d="M399 174C395.364 175.909 394 174.636 394 179C392.182 175.727 394 175.182 389 174C394 173.545 392.182 171.818 394 169C393.364 172 394.727 173.636 399 174Z" fill="#D9D9D9"/>
<path d="M572 257C568.364 258.909 567 257.636 567 262C565.182 258.727 567 258.182 562 257C567 256.545 565.182 254.818 567 252C566.364 255 567.727 256.636 572 257Z" fill="#D15959"/>
<path d="M1250 201C1246.36 202.909 1245 201.636 1245 206C1243.18 202.727 1245 202.182 1240 201C1245 200.545 1243.18 198.818 1245 196C1244.36 199 1245.73 200.636 1250 201Z" fill="#D9D9D9"/>
<path d="M201 61.9999C197.364 63.909 196 62.6362 196 66.9999C194.182 63.7272 196 63.1817 191 61.9999C196 61.5453 194.182 59.8181 196 56.9999C195.364 59.9999 196.727 61.6362 201 61.9999Z" fill="#D9D9D9"/>
<path d="M444 311C440.364 312.909 439 311.636 439 316C437.182 312.727 439 312.182 434 311C439 310.545 437.182 308.818 439 306C438.364 309 439.727 310.636 444 311Z" fill="#884949"/>
<path d="M851 370C847.364 371.909 846 370.636 846 375C844.182 371.727 846 371.182 841 370C846 369.545 844.182 367.818 846 365C845.364 368 846.727 369.636 851 370Z" fill="#D9D9D9"/>
<path d="M480 60C476.364 61.9091 475 60.6364 475 65C473.182 61.7273 475 61.1818 470 60C475 59.5455 473.182 57.8182 475 55C474.364 58 475.727 59.6364 480 60Z" fill="#D9D9D9"/>
<path d="M1278 76.9999C1274.36 78.909 1273 77.6362 1273 81.9999C1271.18 78.7272 1273 78.1817 1268 76.9999C1273 76.5453 1271.18 74.8181 1273 71.9999C1272.36 74.9999 1273.73 76.6362 1278 76.9999Z" fill="#D9D9D9"/>
<path d="M1038 76.9999C1034.36 78.909 1033 77.6362 1033 81.9999C1031.18 78.7272 1033 78.1817 1028 76.9999C1033 76.5453 1031.18 74.8181 1033 71.9999C1032.36 74.9999 1033.73 76.6362 1038 76.9999Z" fill="#D9D9D9"/>
<path d="M798 76.9999C794.364 78.909 793 77.6362 793 81.9999C791.182 78.7272 793 78.1817 788 76.9999C793 76.5453 791.182 74.8181 793 71.9999C792.364 74.9999 793.727 76.6362 798 76.9999Z" fill="#D9D9D9"/>
<path d="M558 76.9999C554.364 78.909 553 77.6362 553 81.9999C551.182 78.7272 553 78.1817 548 76.9999C553 76.5453 551.182 74.8181 553 71.9999C552.364 74.9999 553.727 76.6362 558 76.9999Z" fill="#F0E57E"/>
<path d="M318 76.9999C314.364 78.909 313 77.6362 313 81.9999C311.182 78.7272 313 78.1817 308 76.9999C313 76.5453 311.182 74.8181 313 71.9999C312.364 74.9999 313.727 76.6362 318 76.9999Z" fill="#D9D9D9"/>
<path d="M1195 352C1191.36 353.909 1190 352.636 1190 357C1188.18 353.727 1190 353.182 1185 352C1190 351.545 1188.18 349.818 1190 347C1189.36 350 1190.73 351.636 1195 352Z" fill="#D9D9D9"/>
<path d="M808 179C804.364 180.909 803 179.636 803 184C801.182 180.727 803 180.182 798 179C803 178.545 801.182 176.818 803 174C802.364 177 803.727 178.636 808 179Z" fill="#F0E57E"/>
<path d="M1250 138C1246.36 139.909 1245 138.636 1245 143C1243.18 139.727 1245 139.182 1240 138C1245 137.545 1243.18 135.818 1245 133C1244.36 136 1245.73 137.636 1250 138Z" fill="#D9D9D9"/>
<path d="M600 69.9999C596.364 71.909 595 70.6362 595 74.9999C593.182 71.7272 595 71.1817 590 69.9999C595 69.5453 593.182 67.8181 595 64.9999C594.364 67.9999 595.727 69.6362 600 69.9999Z" fill="#D9D9D9"/>
<path d="M1058 288C1054.36 289.909 1053 288.636 1053 293C1051.18 289.727 1053 289.182 1048 288C1053 287.545 1051.18 285.818 1053 283C1052.36 286 1053.73 287.636 1058 288Z" fill="#D9D9D9"/>
<path d="M775 228C771.364 229.909 770 228.636 770 233C768.182 229.727 770 229.182 765 228C770 227.545 768.182 225.818 770 223C769.364 226 770.727 227.636 775 228Z" fill="#D9D9D9"/>
<path d="M974 290C970.364 291.909 969 290.636 969 295C967.182 291.727 969 291.182 964 290C969 289.545 967.182 287.818 969 285C968.364 288 969.727 289.636 974 290Z" fill="#D9D9D9"/>
<path d="M819 218C815.364 219.909 814 218.636 814 223C812.182 219.727 814 219.182 809 218C814 217.545 812.182 215.818 814 213C813.364 216 814.727 217.636 819 218Z" fill="#D9D9D9"/>
<path d="M394 301C390.364 302.909 389 301.636 389 306C387.182 302.727 389 302.182 384 301C389 300.545 387.182 298.818 389 296C388.364 299 389.727 300.636 394 301Z" fill="#884949"/>
<path d="M938 405C934.364 406.909 933 405.636 933 410C931.182 406.727 933 406.182 928 405C933 404.545 931.182 402.818 933 400C932.364 403 933.727 404.636 938 405Z" fill="#D9D9D9"/>
<path d="M768 155C764.364 156.909 763 155.636 763 160C761.182 156.727 763 156.182 758 155C763 154.545 761.182 152.818 763 150C762.364 153 763.727 154.636 768 155Z" fill="#D15959"/>
<path d="M1232 191C1228.36 192.909 1227 191.636 1227 196C1225.18 192.727 1227 192.182 1222 191C1227 190.545 1225.18 188.818 1227 186C1226.36 189 1227.73 190.636 1232 191Z" fill="#D9D9D9"/>
<path d="M183 51.9999C179.364 53.909 178 52.6362 178 56.9999C176.182 53.7272 178 53.1817 173 51.9999C178 51.5453 176.182 49.8181 178 46.9999C177.364 49.9999 178.727 51.6362 183 51.9999Z" fill="#D9D9D9"/>
<path d="M426 301C422.364 302.909 421 301.636 421 306C419.182 302.727 421 302.182 416 301C421 300.545 419.182 298.818 421 296C420.364 299 421.727 300.636 426 301Z" fill="#884949"/>
<path d="M814 306C810.364 307.909 809 306.636 809 311C807.182 307.727 809 307.182 804 306C809 305.545 807.182 303.818 809 301C808.364 304 809.727 305.636 814 306Z" fill="#D9D9D9"/>
<path d="M562 10C558.364 11.9091 557 10.6364 557 15C555.182 11.7273 557 11.1818 552 10C557 9.54545 555.182 7.81818 557 5C556.364 8 557.727 9.63636 562 10Z" fill="#F0E57E"/>
<path d="M1260 66.9999C1256.36 68.909 1255 67.6362 1255 71.9999C1253.18 68.7272 1255 68.1817 1250 66.9999C1255 66.5453 1253.18 64.8181 1255 61.9999C1254.36 64.9999 1255.73 66.6362 1260 66.9999Z" fill="#D9D9D9"/>
<path d="M1020 66.9999C1016.36 68.909 1015 67.6362 1015 71.9999C1013.18 68.7272 1015 68.1817 1010 66.9999C1015 66.5453 1013.18 64.8181 1015 61.9999C1014.36 64.9999 1015.73 66.6362 1020 66.9999Z" fill="#D9D9D9"/>
<path d="M780 66.9999C776.364 68.909 775 67.6362 775 71.9999C773.182 68.7272 775 68.1817 770 66.9999C775 66.5453 773.182 64.8181 775 61.9999C774.364 64.9999 775.727 66.6362 780 66.9999Z" fill="#D9D9D9"/>
<path d="M540 66.9999C536.364 68.909 535 67.6362 535 71.9999C533.182 68.7272 535 68.1817 530 66.9999C535 66.5453 533.182 64.8181 535 61.9999C534.364 64.9999 535.727 66.6362 540 66.9999Z" fill="#F0E57E"/>
<path d="M300 66.9999C296.364 68.909 295 67.6362 295 71.9999C293.182 68.7272 295 68.1817 290 66.9999C295 66.5453 293.182 64.8181 295 61.9999C294.364 64.9999 295.727 66.6362 300 66.9999Z" fill="#D9D9D9"/>
<path d="M1158 293C1154.36 294.909 1153 293.636 1153 298C1151.18 294.727 1153 294.182 1148 293C1153 292.545 1151.18 290.818 1153 288C1152.36 291 1153.73 292.636 1158 293Z" fill="#D9D9D9"/>
<path d="M549 316C545.364 317.909 544 316.636 544 321C542.182 317.727 544 317.182 539 316C544 315.545 542.182 313.818 544 311C543.364 314 544.727 315.636 549 316Z" fill="#D15959"/>
<path d="M819 585C815.364 586.909 814 585.636 814 590C812.182 586.727 814 586.182 809 585C814 584.545 812.182 582.818 814 580C813.364 583 814.727 584.636 819 585Z" fill="#D15959"/>
<path d="M182.5 325.5C178.864 327.409 177.5 326.136 177.5 330.5C175.682 327.227 177.5 326.682 172.5 325.5C177.5 325.045 175.682 323.318 177.5 320.5C176.864 323.5 178.227 325.136 182.5 325.5Z" fill="#D9D9D9"/>
<path d="M758 415C754.364 416.909 753 415.636 753 420C751.182 416.727 753 416.182 748 415C753 414.545 751.182 412.818 753 410C752.364 413 753.727 414.636 758 415Z" fill="#D9D9D9"/>
<path d="M268 326C264.364 327.909 263 326.636 263 331C261.182 327.727 263 327.182 258 326C263 325.545 261.182 323.818 263 321C262.364 324 263.727 325.636 268 326Z" fill="#D9D9D9"/>
<path d="M439 439C435.364 440.909 434 439.636 434 444C432.182 440.727 434 440.182 429 439C434 438.545 432.182 436.818 434 434C433.364 437 434.727 438.636 439 439Z" fill="#D9D9D9"/>
<path d="M128 335C124.364 336.909 123 335.636 123 340C121.182 336.727 123 336.182 118 335C123 334.545 121.182 332.818 123 330C122.364 333 123.727 334.636 128 335Z" fill="#D9D9D9"/>
<path d="M404 478C400.364 479.909 399 478.636 399 483C397.182 479.727 399 479.182 394 478C399 477.545 397.182 475.818 399 473C398.364 476 399.727 477.636 404 478Z" fill="#D9D9D9"/>
<path d="M97 335C93.3636 336.909 92 335.636 92 340C90.1818 336.727 92 336.182 87 335C92 334.545 90.1818 332.818 92 330C91.3636 333 92.7273 334.636 97 335Z" fill="#D9D9D9"/>
<path d="M449 510C445.364 511.909 444 510.636 444 515C442.182 511.727 444 511.182 439 510C444 509.545 442.182 507.818 444 505C443.364 508 444.727 509.636 449 510Z" fill="#D9D9D9"/>
<path d="M97 425C93.3636 426.909 92 425.636 92 430C90.1818 426.727 92 426.182 87 425C92 424.545 90.1818 422.818 92 420C91.3636 423 92.7273 424.636 97 425Z" fill="#D9D9D9"/>
</g>
<defs>
<filter id="filter0_d_127_288" x="0" y="0" width="1332" height="616" filterUnits="userSpaceOnUse" color-interpolation-filters="sRGB">
<feFlood flood-opacity="0" result="BackgroundImageFix"/>
<feColorMatrix in="SourceAlpha" type="matrix" values="0 0 0 0 0 0 0 0 0 0 0 0 0 0 0 0 0 0 127 0" result="hardAlpha"/>
<feOffset dy="4"/>
<feGaussianBlur stdDeviation="2"/>
<feComposite in2="hardAlpha" operator="out"/>
<feColorMatrix type="matrix" values="0 0 0 0 0 0 0 0 0 0 0 0 0 0 0 0 0 0 0.25 0"/>
<feBlend mode="normal" in2="BackgroundImageFix" result="effect1_dropShadow_127_288"/>
<feBlend mode="normal" in="SourceGraphic" in2="effect1_dropShadow_127_288" result="shape"/>
</filter>
</defs>
</svg>
