<svg width="40" height="40" viewBox="0 0 40 40" fill="none" xmlns="http://www.w3.org/2000/svg">
<path id="Vector" d="M20 0C8.9543 0 0 8.9543 0 20C0 31.0457 8.9543 40 20 40C31.0457 40 40 31.0457 40 20C40 8.9543 31.0457 0 20 0ZM19.3213 7.39257H20.6787V11.394H19.3213V7.39257ZM13.7695 8.59373L16.0645 11.8701L14.9512 12.6514L12.6563 9.375L13.7695 8.59373ZM26.2305 8.59373L27.3437 9.375L25.0488 12.6514L23.9355 11.8701L26.2305 8.59373ZM20 12.4878C23.3251 12.4878 26.0205 14.5061 26.0205 16.9971L22.6001 27.356H17.3999L13.9795 16.9971C13.9795 14.5061 16.6751 12.4878 20 12.4878ZM9.187 13.689L12.9468 15.0586L12.4805 16.3355L8.72313 14.9658L9.187 13.689ZM30.813 13.689L31.2769 14.9658L27.5171 16.3355L27.0532 15.0586L30.813 13.689ZM12.7661 19.5313L13.1177 20.8447L9.25293 21.8799L8.90137 20.5664L12.7661 19.5313ZM27.2339 19.5313L31.0986 20.5664L30.7471 21.8799L26.8823 20.8447L27.2339 19.5313ZM17.3242 28.1128H22.6758V29.9121H17.3242V28.1128ZM17.3242 30.8081H22.6758V32.6074H17.3242V30.8081Z" fill="black"/>
</svg>
