<svg width="47" height="40" viewBox="0 0 47 40" fill="none" xmlns="http://www.w3.org/2000/svg">
<path id="Vector" d="M43.3333 10H33.3333V3.33333C33.3333 2.44928 32.9821 1.60143 32.357 0.976311C31.7319 0.351189 30.8841 0 30 0H16.6667C15.7826 0 14.9348 0.351189 14.3096 0.976311C13.6845 1.60143 13.3333 2.44928 13.3333 3.33333V10H3.33333C2.44928 10 1.60143 10.3512 0.976311 10.9763C0.351189 11.6014 0 12.4493 0 13.3333V36.6667C0 37.5507 0.351189 38.3986 0.976311 39.0237C1.60143 39.6488 2.44928 40 3.33333 40H43.3333C44.2174 40 45.0652 39.6488 45.6904 39.0237C46.3155 38.3986 46.6667 37.5507 46.6667 36.6667V13.3333C46.6667 12.4493 46.3155 11.6014 45.6904 10.9763C45.0652 10.3512 44.2174 10 43.3333 10ZM16.6667 3.33333H30V10H16.6667V3.33333ZM3.33333 36.6667V13.3333H43.3333V36.6667H3.33333Z" fill="black"/>
</svg>
